<svg xmlns="http://www.w3.org/2000/svg" viewBox="0 0 297 126"><defs><style>.cls-1{fill:#292929;}.cls-2{fill:#a5a5a5;}.cls-3{fill:#fbb03b;}.cls-4{fill:#e6e6e6;}</style></defs><g id="Calque_2" data-name="Calque 2"><g id="Calque_2-2" data-name="Calque 2"><rect class="cls-1" width="297" height="126" rx="22.92"/></g><g id="Calque_3" data-name="Calque 3"><path class="cls-2" d="M90.05,36.24V29.82A17.85,17.85,0,0,1,107.9,12h.21A17.86,17.86,0,0,1,126,29.83v6.41A2.74,2.74,0,0,1,123.2,39h0a2.75,2.75,0,0,1-2.75-2.75V29.31a12.26,12.26,0,0,0-12.26-12.26h0A12.26,12.26,0,0,0,95.92,29.31v6.93A2.75,2.75,0,0,1,93.18,39h-.37A2.74,2.74,0,0,1,90.05,36.24Z"/><path class="cls-3" d="M126,36H90.05a9,9,0,0,0-9,9V81a9,9,0,0,0,9,9H126a9,9,0,0,0,9-9V45.05A9,9,0,0,0,126,36ZM108.22,80.93a9.14,9.14,0,0,1-9-9,8.51,8.51,0,0,1,5-8.06V54s.09-4,4-4,4,4,4,4l-.09,9.82a9.24,9.24,0,0,1,5.09,8.1A8.76,8.76,0,0,1,108.22,80.93Z"/><path class="cls-1" d="M117.22,71.93a8.76,8.76,0,0,1-9,9,9.14,9.14,0,0,1-9-9,8.51,8.51,0,0,1,5-8.06V54s.09-4,4-4,4,4,4,4l-.09,9.82A9.24,9.24,0,0,1,117.22,71.93Z"/></g><g id="Calque_4" data-name="Calque 4"><path class="cls-2" d="M36,40.46v32.1A17.43,17.43,0,0,0,53.44,90H67.51A4.49,4.49,0,0,0,72,85.51v0A4.49,4.49,0,0,0,67.51,81H53.44A8.44,8.44,0,0,1,45,72.56V40.46A4.49,4.49,0,0,0,40.54,36h0A4.5,4.5,0,0,0,36,40.46Z"/><path class="cls-2" d="M171,81.05h4.48a4.51,4.51,0,0,1,4.5,4.5h0a4.5,4.5,0,0,1-4.5,4.5H171a27,27,0,0,1-27-27V63a27,27,0,0,1,27-27h4.49a4.5,4.5,0,0,1,4.5,4.5h0a4.5,4.5,0,0,1-4.5,4.5H171a18,18,0,0,0-18,18h0A18,18,0,0,0,171,81.05Z"/><path class="cls-2" d="M189,85.52l0-45A4.5,4.5,0,0,1,193.54,36h0A4.49,4.49,0,0,1,198,40.49v45A4.48,4.48,0,0,1,193.52,90h0A4.49,4.49,0,0,1,189,85.52Z"/><path class="cls-2" d="M227.52,42V30a3,3,0,0,1,3-3H231a3,3,0,0,1,3,3V42h0a3,3,0,0,1-3,3h-.49A3,3,0,0,1,227.52,42Z"/><path class="cls-2" d="M199.38,60.92l15.51-23.25A3.74,3.74,0,0,1,218,36h0a3.74,3.74,0,0,1,3.12,5.82l-12.74,19.1a3.75,3.75,0,0,0,0,4.16l12.74,19.1A3.74,3.74,0,0,1,218,90h0a3.74,3.74,0,0,1-3.11-1.67L199.38,65.08A3.75,3.75,0,0,1,199.38,60.92Z"/><path class="cls-2" d="M270,49h0a4.33,4.33,0,0,1-4.33,4.33H261A8.84,8.84,0,0,0,252,62V88l-9,0,0-26V40.48A4.49,4.49,0,0,1,247.51,36h0A4.49,4.49,0,0,1,252,40.49V45.1a1.18,1.18,0,0,0,1.66,1.07A18.49,18.49,0,0,1,261,44.66h4.67A4.33,4.33,0,0,1,270,49Z"/><path class="cls-3" d="M248,81.13A15.87,15.87,0,1,0,263.87,97,15.89,15.89,0,0,0,248,81.13Zm0,24.37a8.5,8.5,0,1,1,8.5-8.5A8.51,8.51,0,0,1,248,105.5Z"/><path class="cls-4" d="M243,62.28V63h0C243,62.76,243,62.52,243,62.28Z"/></g></g></svg>